<svg width="28" height="36" viewBox="0 0 28 36" fill="none" xmlns="http://www.w3.org/2000/svg">
<path d="M8.24998 18H19.75H8.24998ZM8.24998 25.6667H19.75H8.24998ZM23.5833 35.25H4.41665C3.39998 35.25 2.42496 34.8461 1.70607 34.1272C0.987181 33.4084 0.583313 32.4333 0.583313 31.4167V4.58333C0.583313 3.56667 0.987181 2.59165 1.70607 1.87276C2.42496 1.15387 3.39998 0.75 4.41665 0.75H15.1231C15.6314 0.750109 16.1189 0.952114 16.4782 1.31158L26.8551 11.6884C27.2145 12.0478 27.4165 12.5352 27.4166 13.0435V31.4167C27.4166 32.4333 27.0128 33.4084 26.2939 34.1272C25.575 34.8461 24.6 35.25 23.5833 35.25Z" stroke="#339CFF" stroke-linecap="round" stroke-linejoin="round"/>
</svg>
