<svg width="30" height="29" viewBox="0 0 30 29" fill="none" xmlns="http://www.w3.org/2000/svg">
<g clip-path="url(#clip0_153_17)">
<path d="M11.2564 12.7268H8.94832V10.5432H11.0426C13.2485 10.5432 12.976 12.7268 11.2564 12.7268ZM18.0562 13.9696H21.1384C21.0033 11.988 18.3663 11.8435 18.0562 13.9696ZM11.126 14.4347H8.94832V16.7217H11.0908C13.1839 16.7205 13.0559 14.4347 11.126 14.4347ZM29.0634 14.0952C29.0634 21.8793 22.7523 28.1905 14.9682 28.1905C7.18407 28.1905 0.872925 21.8793 0.872925 14.0952C0.872925 6.31114 7.18407 0 14.9682 0C22.7523 0 29.0634 6.31114 29.0634 14.0952V14.0952ZM13.3742 13.2343C15.3335 12.2323 15.2618 8.55816 11.5101 8.50295H6.74594V18.7572H11.1754C15.8245 18.7572 15.7458 14.0976 13.3742 13.2343ZM17.3174 9.51546H22.0158V8.48768H17.3174V9.51546ZM23.1234 13.8533C22.4833 9.73629 16.0136 9.49432 16.0136 14.8775C16.0136 20.1938 22.098 19.3622 23.0013 16.7099H20.8306C20.073 17.5885 17.8847 17.3336 18.0069 15.3192H23.1869C23.1974 14.6673 23.1763 14.1998 23.1234 13.8533V13.8533Z" fill="white"/>
</g>
<defs>
<clipPath id="clip0_153_17">
<rect width="28.1905" height="28.1905" fill="white" transform="translate(0.872925)"/>
</clipPath>
</defs>
</svg>
