<svg width="85" height="86" viewBox="0 0 85 86" fill="none" xmlns="http://www.w3.org/2000/svg">
<path d="M31.5456 38.7837H24.6173V32.2292H30.9039C37.5254 32.2292 36.7074 38.7837 31.5456 38.7837ZM51.9566 42.514H61.2084C60.8029 36.566 52.8874 36.1323 51.9566 42.514ZM31.1542 43.9103H24.6173V50.7751H31.0484C37.3315 50.7715 36.9471 43.9103 31.1542 43.9103ZM84.9972 42.8913C84.9972 66.257 66.0529 85.2013 42.6872 85.2013C19.3215 85.2013 0.377197 66.257 0.377197 42.8913C0.377197 19.5256 19.3215 0.581299 42.6872 0.581299C66.0529 0.581299 84.9972 19.5256 84.9972 42.8913ZM37.9026 40.3069C43.7837 37.2993 43.5687 26.2705 32.3071 26.1048H18.0064V56.8853H31.3023C45.2575 56.8853 45.0213 42.8983 37.9026 40.3069ZM49.7389 29.1441H63.8422V26.059H49.7389V29.1441ZM67.1671 42.165C65.2455 29.8069 45.8252 29.0806 45.8252 45.2395C45.8252 61.1974 64.089 58.7011 66.8004 50.7398H60.2846C58.0105 53.3771 51.4418 52.612 51.8085 46.5652H67.3575C67.3892 44.6084 67.3257 43.2051 67.1671 42.165Z" fill="#0758A4"/>
</svg>
