<svg width="36" height="36" viewBox="0 0 36 36" fill="none" xmlns="http://www.w3.org/2000/svg">
<path d="M35.25 0.75L23.75 12.25L35.25 0.75ZM23.75 12.25V2.66667V12.25ZM23.75 12.25H33.3333H23.75ZM4.58333 0.75C3.56667 0.75 2.59165 1.15387 1.87276 1.87276C1.15387 2.59165 0.75 3.56667 0.75 4.58333V6.5C0.75 22.3777 13.6223 35.25 29.5 35.25H31.4167C32.4333 35.25 33.4084 34.8461 34.1272 34.1272C34.8461 33.4084 35.25 32.4333 35.25 31.4167V25.13C35.2497 24.7279 35.1229 24.3361 34.8877 24.01C34.6524 23.6839 34.3205 23.4401 33.939 23.313L25.3274 20.4418C24.8898 20.2964 24.4143 20.3136 23.9883 20.4903C23.5624 20.667 23.2144 20.9914 23.0082 21.404L20.8424 25.7299C16.1491 23.609 12.3901 19.8494 10.2701 15.1557L14.596 12.9937C15.0086 12.7875 15.333 12.4396 15.5097 12.0136C15.6864 11.5876 15.7036 11.1121 15.5582 10.6745L12.687 2.05908C12.5595 1.67763 12.3152 1.34595 11.9888 1.11101C11.6624 0.876066 11.2703 0.749769 10.8681 0.75H4.58333Z" stroke="#339CFF" stroke-linecap="round" stroke-linejoin="round"/>
</svg>
