<svg width="35" height="35" viewBox="0 0 35 35" fill="none" xmlns="http://www.w3.org/2000/svg">
<path d="M25.9375 32.1138C23.3738 33.599 20.4629 34.3798 17.5 34.3769M25 17.5C25 15.5109 24.2098 13.6032 22.8033 12.1967C21.3968 10.7902 19.4891 10 17.5 10C15.5109 10 13.6032 10.7902 12.1967 12.1967C10.7902 13.6032 10 15.5109 10 17.5C10 19.4891 10.7902 21.3968 12.1967 22.8033C13.6032 24.2098 15.5109 25 17.5 25C19.4891 25 21.3968 24.2098 22.8033 22.8033C24.2098 21.3968 25 19.4891 25 17.5ZM25 17.5V20.3125C25 21.5557 25.4939 22.748 26.3729 23.6271C27.252 24.5061 28.4443 25 29.6875 25C30.9307 25 32.123 24.5061 33.0021 23.6271C33.8811 22.748 34.375 21.5557 34.375 20.3125V17.5C34.375 14.1624 33.3853 10.8998 31.5311 8.12476C29.6768 5.34968 27.0413 3.18677 23.9578 1.90954C20.8743 0.632312 17.4813 0.29813 14.2079 0.949256C10.9344 1.60038 7.92759 3.20757 5.56758 5.56758C3.20757 7.92759 1.60038 10.9344 0.949256 14.2079C0.29813 17.4813 0.632312 20.8743 1.90954 23.9578C3.18677 27.0413 5.34968 29.6768 8.12476 31.5311C10.8998 33.3853 14.1624 34.375 17.5 34.375L25 17.5Z" stroke="#797979" stroke-linecap="round" stroke-linejoin="round"/>
</svg>
