<svg width="85" height="84" viewBox="0 0 85 84" fill="none" xmlns="http://www.w3.org/2000/svg">
<path d="M42.3076 0.739014C18.9468 0.739014 0 19.6823 0 43.0467C0 61.7396 12.1211 77.5979 28.9349 83.1931C31.0468 83.5844 31.7307 82.2729 31.7307 81.1588V73.2825C19.9622 75.8421 17.5118 68.2902 17.5118 68.2902C15.5868 63.4002 12.8122 62.0992 12.8122 62.0992C8.97275 59.4726 13.1048 59.529 13.1048 59.529C17.3532 59.8252 19.5884 63.8902 19.5884 63.8902C23.3609 70.3562 29.4849 68.4877 31.9 67.4053C32.2772 64.6729 33.3737 62.8043 34.5865 61.7502C25.1907 60.6748 15.3118 57.047 15.3118 40.8396C15.3118 36.2175 16.9654 32.4451 19.6695 29.4835C19.2323 28.4153 17.7833 24.1105 20.082 18.2861C20.082 18.2861 23.6359 17.1509 31.7202 22.6226C35.0942 21.6848 38.7115 21.2159 42.3076 21.1983C45.9038 21.2159 49.5246 21.6848 52.9057 22.6226C60.9829 17.1509 64.5297 18.2861 64.5297 18.2861C66.832 24.114 65.3829 28.4188 64.9458 29.4835C67.6605 32.4451 69.2999 36.221 69.2999 40.8396C69.2999 57.0893 59.4035 60.6678 49.983 61.7149C51.499 63.0264 52.8846 65.6002 52.8846 69.5489V81.1588C52.8846 82.2835 53.5615 83.6056 55.7086 83.1896C72.5082 77.5873 84.6153 61.7325 84.6153 43.0467C84.6153 19.6823 65.672 0.739014 42.3076 0.739014Z" fill="#0758A4"/>
</svg>
