<svg width="29" height="29" viewBox="0 0 29 29" fill="none" xmlns="http://www.w3.org/2000/svg">
<g clip-path="url(#clip0_153_13)">
<path d="M14.0952 0C6.31232 0 0 6.31114 0 14.0952C0 20.323 4.03829 25.6064 9.63997 27.4705C10.3436 27.6008 10.5714 27.1639 10.5714 26.7927V24.1686C6.6506 25.0214 5.83426 22.5054 5.83426 22.5054C5.19292 20.8762 4.26851 20.4428 4.26851 20.4428C2.98937 19.5677 4.366 19.5865 4.366 19.5865C5.7814 19.6852 6.5261 21.0395 6.5261 21.0395C7.78292 23.1937 9.82321 22.5712 10.6278 22.2106C10.7535 21.3003 11.1188 20.6777 11.5229 20.3265C8.39254 19.9683 5.1013 18.7596 5.1013 13.3599C5.1013 11.82 5.65219 10.5632 6.55311 9.57654C6.40746 9.22064 5.9247 7.78645 6.69054 5.846C6.69054 5.846 7.87454 5.46778 10.5679 7.29076C11.692 6.97832 12.8971 6.8221 14.0952 6.81622C15.2933 6.8221 16.4997 6.97832 17.6261 7.29076C20.3171 5.46778 21.4988 5.846 21.4988 5.846C22.2658 7.78762 21.783 9.22181 21.6374 9.57654C22.5418 10.5632 23.088 11.8212 23.088 13.3599C23.088 18.7737 19.7909 19.9659 16.6524 20.3148C17.1574 20.7517 17.6191 21.6092 17.6191 22.9247V26.7927C17.6191 27.1674 17.8446 27.6079 18.5599 27.4693C24.1569 25.6028 28.1905 20.3206 28.1905 14.0952C28.1905 6.31114 21.8793 0 14.0952 0Z" fill="white"/>
</g>
<defs>
<clipPath id="clip0_153_13">
<rect width="28.1905" height="28.1905" fill="white"/>
</clipPath>
</defs>
</svg>
