<svg width="29" height="29" viewBox="0 0 29 29" fill="none" xmlns="http://www.w3.org/2000/svg">
<g clip-path="url(#clip0_153_19)">
<path d="M18.2276 7.40235C17.3608 7.36241 17.1 7.35537 14.9047 7.35537C12.7094 7.35537 12.4498 7.36359 11.5829 7.40235C9.35234 7.50454 8.31399 8.56051 8.2118 10.7735C8.17304 11.6403 8.16364 11.8999 8.16364 14.0952C8.16364 16.2906 8.17304 16.5502 8.2118 17.4182C8.31399 19.6253 9.34764 20.6871 11.5829 20.7893C12.4486 20.8281 12.7094 20.8375 14.9047 20.8375C17.1012 20.8375 17.3608 20.8292 18.2276 20.7893C20.4582 20.6883 21.4954 19.6288 21.5988 17.4182C21.6375 16.5513 21.6457 16.2906 21.6457 14.0952C21.6457 11.8999 21.6375 11.6403 21.5988 10.7735C21.4954 8.56168 20.4559 7.50454 18.2276 7.40235V7.40235ZM14.9047 18.3179C12.5731 18.3179 10.682 16.428 10.682 14.0952C10.682 11.7637 12.5731 9.87372 14.9047 9.87372C17.2363 9.87372 19.1274 11.7637 19.1274 14.0952C19.1274 16.4268 17.2363 18.3179 14.9047 18.3179ZM19.2942 10.6936C18.7492 10.6936 18.3075 10.2519 18.3075 9.70692C18.3075 9.16191 18.7492 8.72026 19.2942 8.72026C19.8392 8.72026 20.2808 9.16191 20.2808 9.70692C20.2808 10.2508 19.8392 10.6936 19.2942 10.6936V10.6936ZM17.645 14.0952C17.645 15.6093 16.4176 16.8356 14.9047 16.8356C13.3918 16.8356 12.1643 15.6093 12.1643 14.0952C12.1643 12.5812 13.3918 11.3549 14.9047 11.3549C16.4176 11.3549 17.645 12.5812 17.645 14.0952ZM14.9047 0C7.12059 0 0.809448 6.31114 0.809448 14.0952C0.809448 21.8793 7.12059 28.1905 14.9047 28.1905C22.6888 28.1905 28.9999 21.8793 28.9999 14.0952C28.9999 6.31114 22.6888 0 14.9047 0ZM23.0776 17.4851C22.9425 20.4745 21.2781 22.1307 18.2958 22.2681C17.4183 22.3081 17.1376 22.3175 14.9047 22.3175C12.6718 22.3175 12.3922 22.3081 11.5148 22.2681C8.52659 22.1307 6.86923 20.4722 6.7318 17.4851C6.69186 16.6089 6.68247 16.3282 6.68247 14.0952C6.68247 11.8623 6.69186 11.5828 6.7318 10.7053C6.86923 7.71715 8.52777 6.05978 11.5148 5.92353C12.3922 5.88241 12.6718 5.87302 14.9047 5.87302C17.1376 5.87302 17.4183 5.88241 18.2958 5.92353C21.2851 6.06095 22.9437 7.72302 23.0776 10.7053C23.1175 11.5828 23.1269 11.8623 23.1269 14.0952C23.1269 16.3282 23.1175 16.6089 23.0776 17.4851Z" fill="white"/>
</g>
<defs>
<clipPath id="clip0_153_19">
<rect width="28.1905" height="28.1905" fill="white" transform="translate(0.809448)"/>
</clipPath>
</defs>
</svg>
