<svg width="85" height="86" viewBox="0 0 85 86" fill="none" xmlns="http://www.w3.org/2000/svg">
<path d="M52.6618 22.8011C50.0597 22.6812 49.277 22.6601 42.6872 22.6601C36.0974 22.6601 35.3182 22.6847 32.7161 22.8011C26.0206 23.1078 22.9037 26.2776 22.597 32.9202C22.4806 35.5223 22.4524 36.3015 22.4524 42.8913C22.4524 49.4811 22.4806 50.2603 22.597 52.8659C22.9037 59.4909 26.0065 62.6783 32.7161 62.985C35.3147 63.1014 36.0974 63.1296 42.6872 63.1296C49.2805 63.1296 50.0597 63.1049 52.6618 62.985C59.3573 62.6818 62.4706 59.5015 62.7809 52.8659C62.8973 50.2638 62.922 49.4811 62.922 42.8913C62.922 36.3015 62.8973 35.5223 62.7809 32.9202C62.4706 26.2811 59.3503 23.1078 52.6618 22.8011ZM42.6872 55.5667C35.6884 55.5667 30.0118 49.8936 30.0118 42.8913C30.0118 35.8925 35.6884 30.2195 42.6872 30.2195C49.686 30.2195 55.3626 35.8925 55.3626 42.8913C55.3626 49.8901 49.686 55.5667 42.6872 55.5667ZM55.8632 32.6805C54.2273 32.6805 52.9015 31.3548 52.9015 29.7188C52.9015 28.0828 54.2273 26.7571 55.8632 26.7571C57.4992 26.7571 58.8249 28.0828 58.8249 29.7188C58.8249 31.3512 57.4992 32.6805 55.8632 32.6805ZM50.913 42.8913C50.913 47.4361 47.2285 51.1171 42.6872 51.1171C38.1459 51.1171 34.4614 47.4361 34.4614 42.8913C34.4614 38.3465 38.1459 34.6655 42.6872 34.6655C47.2285 34.6655 50.913 38.3465 50.913 42.8913ZM42.6872 0.581299C19.3215 0.581299 0.377197 19.5256 0.377197 42.8913C0.377197 66.257 19.3215 85.2013 42.6872 85.2013C66.0529 85.2013 84.9972 66.257 84.9972 42.8913C84.9972 19.5256 66.0529 0.581299 42.6872 0.581299ZM67.2199 53.0669C66.8145 62.0401 61.8184 67.0115 52.8663 67.424C50.2325 67.5439 49.3898 67.5721 42.6872 67.5721C35.9846 67.5721 35.1454 67.5439 32.5116 67.424C23.5419 67.0115 18.567 62.033 18.1544 53.0669C18.0346 50.4366 18.0064 49.5939 18.0064 42.8913C18.0064 36.1887 18.0346 35.3495 18.1544 32.7157C18.567 23.746 23.5455 18.7711 32.5116 18.3621C35.1454 18.2387 35.9846 18.2105 42.6872 18.2105C49.3898 18.2105 50.2325 18.2387 52.8663 18.3621C61.8395 18.7746 66.818 23.7637 67.2199 32.7157C67.3398 35.3495 67.368 36.1887 67.368 42.8913C67.368 49.5939 67.3398 50.4366 67.2199 53.0669Z" fill="#0758A4"/>
</svg>
