<svg width="30" height="29" viewBox="0 0 30 29" fill="none" xmlns="http://www.w3.org/2000/svg">
<g clip-path="url(#clip0_153_15)">
<path d="M15.0317 0C7.24761 0 0.936462 6.31114 0.936462 14.0952C0.936462 21.8793 7.24761 28.1905 15.0317 28.1905C22.8158 28.1905 29.1269 21.8793 29.1269 14.0952C29.1269 6.31114 22.8158 0 15.0317 0ZM12.6825 18.7937H10.3333V11.746H12.6825V18.7937ZM11.5079 10.6995C10.7949 10.6995 10.2158 10.1169 10.2158 9.39683C10.2158 8.67797 10.7937 8.09419 11.5079 8.09419C12.2221 8.09419 12.8 8.67797 12.8 9.39683C12.8 10.1169 12.2209 10.6995 11.5079 10.6995ZM20.9047 18.7937H18.5579V15.4331C18.5579 13.2237 16.2063 13.4104 16.2063 15.4331V18.7937H13.8571V11.746H16.2063V13.0299C17.2306 11.1317 20.9047 10.9908 20.9047 14.8482V18.7937Z" fill="white"/>
</g>
<defs>
<clipPath id="clip0_153_15">
<rect width="28.1905" height="28.1905" fill="white" transform="translate(0.936462)"/>
</clipPath>
</defs>
</svg>
