<svg width="85" height="85" viewBox="0 0 85 85" fill="none" xmlns="http://www.w3.org/2000/svg">
<path d="M42.31 0C18.9443 0 0 18.9443 0 42.31C0 65.6757 18.9443 84.62 42.31 84.62C65.6757 84.62 84.62 65.6757 84.62 42.31C84.62 18.9443 65.6757 0 42.31 0ZM35.2583 56.4133H28.2067V35.2583H35.2583V56.4133ZM31.7325 32.1168C29.5923 32.1168 27.8541 30.368 27.8541 28.2067C27.8541 26.0489 29.5888 24.2965 31.7325 24.2965C33.8762 24.2965 35.6109 26.0489 35.6109 28.2067C35.6109 30.368 33.8727 32.1168 31.7325 32.1168ZM59.9392 56.4133H52.8946V46.3259C52.8946 39.6938 45.8358 40.2544 45.8358 46.3259V56.4133H38.7842V35.2583H45.8358V39.1121C48.9104 33.4143 59.9392 32.9912 59.9392 44.5701V56.4133Z" fill="#0758A4"/>
</svg>
