<svg width="22" height="13" viewBox="0 0 22 13" fill="none" xmlns="http://www.w3.org/2000/svg">
<path d="M12.0833 12.1404C12.0833 11.6919 11.7193 11.3279 11.2708 11.3279H0.979168C0.530668 11.3279 0.166668 11.6919 0.166668 12.1404C0.166668 12.5889 0.530668 12.9529 0.979168 12.9529H11.2708C11.7193 12.9529 12.0833 12.5889 12.0833 12.1404ZM21.8333 6.72373C21.8333 6.27523 21.4693 5.91123 21.0208 5.91123H0.979168C0.530668 5.91123 0.166668 6.27523 0.166668 6.72373C0.166668 7.17223 0.530668 7.53623 0.979168 7.53623H21.0208C21.4693 7.53623 21.8333 7.17223 21.8333 6.72373ZM17.5 1.30707C17.5 0.858568 17.136 0.494568 16.6875 0.494568H0.979168C0.530668 0.494568 0.166668 0.858568 0.166668 1.30707C0.166668 1.75557 0.530668 2.11957 0.979168 2.11957H16.6875C17.136 2.11957 17.5 1.75557 17.5 1.30707Z" fill="white"/>
</svg>
