<svg width="24" height="36" viewBox="0 0 24 36" fill="none" xmlns="http://www.w3.org/2000/svg">
<path d="M12 29.5H12.0192H12ZM4.33333 35.25H19.6667C20.6833 35.25 21.6584 34.8461 22.3772 34.1272C23.0961 33.4084 23.5 32.4333 23.5 31.4167V4.58333C23.5 3.56667 23.0961 2.59165 22.3772 1.87276C21.6584 1.15387 20.6833 0.75 19.6667 0.75H4.33333C3.31667 0.75 2.34165 1.15387 1.62276 1.87276C0.903868 2.59165 0.5 3.56667 0.5 4.58333V31.4167C0.5 32.4333 0.903868 33.4084 1.62276 34.1272C2.34165 34.8461 3.31667 35.25 4.33333 35.25Z" stroke="#797979" stroke-linecap="round" stroke-linejoin="round"/>
</svg>
