<svg width="35" height="35" viewBox="0 0 35 35" fill="none" xmlns="http://www.w3.org/2000/svg">
<path d="M17.625 4.5C17.625 3.50544 18.0201 2.55161 18.7234 1.84835C19.4266 1.14509 20.3804 0.75 21.375 0.75C22.3696 0.75 23.3234 1.14509 24.0266 1.84835C24.7299 2.55161 25.125 3.50544 25.125 4.5V6.375C25.125 6.87228 25.3225 7.34919 25.6742 7.70082C26.0258 8.05246 26.5027 8.25 27 8.25H32.625C33.1223 8.25 33.5992 8.44754 33.9508 8.79918C34.3025 9.15081 34.5 9.62772 34.5 10.125V15.75C34.5 16.2473 34.3025 16.7242 33.9508 17.0758C33.5992 17.4275 33.1223 17.625 32.625 17.625H30.75C29.7554 17.625 28.8016 18.0201 28.0984 18.7234C27.3951 19.4266 27 20.3804 27 21.375C27 22.3696 27.3951 23.3234 28.0984 24.0266C28.8016 24.7299 29.7554 25.125 30.75 25.125H32.625C33.1223 25.125 33.5992 25.3225 33.9508 25.6742C34.3025 26.0258 34.5 26.5027 34.5 27V32.625C34.5 33.1223 34.3025 33.5992 33.9508 33.9508C33.5992 34.3025 33.1223 34.5 32.625 34.5H27C26.5027 34.5 26.0258 34.3025 25.6742 33.9508C25.3225 33.5992 25.125 33.1223 25.125 32.625V30.75C25.125 29.7554 24.7299 28.8016 24.0266 28.0984C23.3234 27.3951 22.3696 27 21.375 27C20.3804 27 19.4266 27.3951 18.7234 28.0984C18.0201 28.8016 17.625 29.7554 17.625 30.75V32.625C17.625 33.1223 17.4275 33.5992 17.0758 33.9508C16.7242 34.3025 16.2473 34.5 15.75 34.5H10.125C9.62772 34.5 9.15081 34.3025 8.79918 33.9508C8.44754 33.5992 8.25 33.1223 8.25 32.625V27C8.25 26.5027 8.05246 26.0258 7.70082 25.6742C7.34919 25.3225 6.87228 25.125 6.375 25.125H4.5C3.50544 25.125 2.55161 24.7299 1.84835 24.0266C1.14509 23.3234 0.75 22.3696 0.75 21.375C0.75 20.3804 1.14509 19.4266 1.84835 18.7234C2.55161 18.0201 3.50544 17.625 4.5 17.625H6.375C6.87228 17.625 7.34919 17.4275 7.70082 17.0758C8.05246 16.7242 8.25 16.2473 8.25 15.75V10.125C8.25 9.62772 8.44754 9.15081 8.79918 8.79918C9.15081 8.44754 9.62772 8.25 10.125 8.25H15.75C16.2473 8.25 16.7242 8.05246 17.0758 7.70082C17.4275 7.34919 17.625 6.87228 17.625 6.375V4.5Z" stroke="#339CFF" stroke-linecap="round" stroke-linejoin="round"/>
</svg>
