<svg width="18" height="19" viewBox="0 0 18 19" fill="none" xmlns="http://www.w3.org/2000/svg">
<path d="M7.4188 11.2061C8.08557 11.9162 8.98977 12.315 9.93258 12.315C10.8754 12.315 11.7796 11.9162 12.4464 11.2061L16.0019 7.41866C16.6496 6.70434 17.008 5.74762 16.9999 4.75456C16.9918 3.76149 16.6178 2.81155 15.9586 2.10932C15.2994 1.4071 14.4076 1.00877 13.4753 1.00014C12.5431 0.991514 11.6449 1.37327 10.9744 2.06319L9.99658 3.10474M10.6686 7.74439C10.0018 7.03435 9.09761 6.63547 8.1548 6.63547C7.212 6.63547 6.30779 7.03435 5.64102 7.74439L2.08547 11.5319C1.74588 11.8812 1.47501 12.2992 1.28866 12.7612C1.10232 13.2233 1.00424 13.7203 1.00013 14.2232C0.996032 14.7261 1.08599 15.2248 1.26477 15.6903C1.44355 16.1558 1.70756 16.5787 2.0414 16.9343C2.37524 17.2899 2.77222 17.5711 3.20919 17.7616C3.64615 17.952 4.11435 18.0478 4.58645 18.0435C5.05856 18.0391 5.52512 17.9346 5.95891 17.7361C6.3927 17.5376 6.78504 17.2491 7.11302 16.8873L8.09258 15.8448L10.6686 7.74439Z" stroke="white" stroke-linecap="round" stroke-linejoin="round"/>
</svg>
