<svg width="36" height="32" viewBox="0 0 36 32" fill="none" xmlns="http://www.w3.org/2000/svg">
<path d="M10.3333 10.25L16.0833 16L10.3333 21.75V10.25ZM19.9167 21.75H25.6667H19.9167ZM4.58333 31.3333H31.4167C32.4333 31.3333 33.4084 30.9294 34.1272 30.2105C34.8461 29.4916 35.25 28.5166 35.25 27.5V4.49996C35.25 3.4833 34.8461 2.50827 34.1272 1.78938C33.4084 1.07049 32.4333 0.666626 31.4167 0.666626H4.58333C3.56667 0.666626 2.59165 1.07049 1.87276 1.78938C1.15387 2.50827 0.75 3.4833 0.75 4.49996V27.5C0.75 28.5166 1.15387 29.4916 1.87276 30.2105C2.59165 30.9294 3.56667 31.3333 4.58333 31.3333Z" stroke="#339CFF" stroke-linecap="round" stroke-linejoin="round"/>
</svg>
