<svg width="17" height="19" viewBox="0 0 17 19" fill="none" xmlns="http://www.w3.org/2000/svg">
<path d="M11.7775 13.2456L10.0885 18.0436L6.71051 7.48791L16 11.3263L11.7775 13.2456ZM11.7775 13.2456L16 18.0436L11.7775 13.2456ZM5.18027 1L5.83645 3.77998L5.18027 1ZM3.44736 6.49472L1 5.7491L3.44736 6.49472ZM10.8908 2.73785L9.09875 4.77414L10.8908 2.73785ZM4.32142 10.2017L2.53108 12.238L4.32142 10.2017Z" fill="white"/>
<path d="M4.32142 10.2017L2.53108 12.238M11.7775 13.2456L10.0885 18.0436L6.71051 7.48791L16 11.3263L11.7775 13.2456ZM11.7775 13.2456L16 18.0436L11.7775 13.2456ZM5.18027 1L5.83645 3.77998L5.18027 1ZM3.44736 6.49472L1 5.7491L3.44736 6.49472ZM10.8908 2.73785L9.09875 4.77414L10.8908 2.73785Z" stroke="white" stroke-linecap="round" stroke-linejoin="round"/>
</svg>
